<svg xmlns="http://www.w3.org/2000/svg" viewBox="0 0 290 240" width="290" height="240" data-copyright="© 2026 Sensory App House"><!--SAH-COPYRIGHT © 2026 Sensory App House. All rights reserved.--><metadata id="sah-copyright"><rdf:RDF xmlns:rdf="http://www.w3.org/1999/02/22-rdf-syntax-ns#" xmlns:dc="http://purl.org/dc/elements/1.1/" xmlns:cc="http://creativecommons.org/ns#"><cc:Work rdf:about=""><dc:rights><cc:Agent><dc:title>© 2026 Sensory App House. All rights reserved.</dc:title></cc:Agent></dc:rights><dc:creator><cc:Agent><dc:title>Sensory App House (PiCom)</dc:title></cc:Agent></dc:creator><dc:date>2026</dc:date></cc:Work></rdf:RDF></metadata>
<g transform="translate(145.0 120.0) scale(0.133414 -0.133414) translate(-718.500 -539.500)"><path d="M1337 -238Q1337 -258 1323.5 -271.5Q1310 -285 1290 -285H145Q125 -285 112.5 -270.5Q100 -256 100 -238V1319Q100 1339 112.5 1351.5Q125 1364 145 1364H1290Q1309 1364 1323.0 1351.5Q1337 1339 1337 1319ZM1308 1319Q1308 1325 1303.5 1330.0Q1299 1335 1290 1335H145Q129 1335 129 1319V-238Q129 -247 134.0 -251.5Q139 -256 145 -256H1290Q1308 -256 1308 -238ZM1098 1042Q1098 1017 1080.0 999.0Q1062 981 1036 981Q1010 981 994.5 996.0Q979 1011 971 1034Q971 1014 973.0 988.5Q975 963 987 946H946Q956 961 959.0 988.0Q962 1015 962 1034Q953 1011 938.0 996.0Q923 981 897 981Q871 981 853.0 999.0Q835 1017 835 1042Q835 1073 855.5 1089.5Q876 1106 905 1106Q914 1106 923.0 1104.0Q932 1102 940 1097Q926 1108 915.5 1127.0Q905 1146 905 1163Q905 1189 922.5 1206.5Q940 1224 966 1224Q992 1224 1010.0 1206.5Q1028 1189 1028 1163Q1028 1146 1017.5 1127.0Q1007 1108 993 1097Q1001 1102 1010.0 1104.0Q1019 1106 1028 1106Q1057 1106 1077.5 1090.0Q1098 1074 1098 1042ZM1098 692Q1098 667 1080.0 648.5Q1062 630 1036 630Q1010 630 994.5 645.5Q979 661 971 684Q971 664 973.0 638.5Q975 613 987 596H946Q956 611 959.0 638.0Q962 665 962 684Q953 661 938.0 645.5Q923 630 897 630Q871 630 853.0 648.5Q835 667 835 692Q835 723 855.5 739.0Q876 755 905 755Q914 755 923.0 753.5Q932 752 940 747Q926 758 915.5 777.0Q905 796 905 813Q905 839 922.5 856.5Q940 874 966 874Q992 874 1010.0 856.5Q1028 839 1028 813Q1028 796 1017.5 777.0Q1007 758 993 747Q1001 752 1010.0 753.5Q1019 755 1028 755Q1057 755 1077.5 739.5Q1098 724 1098 692ZM850 864Q850 839 832.0 821.0Q814 803 788 803Q762 803 746.5 818.0Q731 833 723 856Q723 836 725.0 810.5Q727 785 739 768H698Q709 783 712.0 810.0Q715 837 715 856Q705 833 690.0 818.0Q675 803 649 803Q623 803 605.5 821.0Q588 839 588 864Q588 895 608.0 911.0Q628 927 657 927Q678 927 692 919Q678 930 667.5 949.0Q657 968 657 985Q657 1011 675.0 1028.5Q693 1046 719 1046Q745 1046 762.5 1028.5Q780 1011 780 985Q780 968 769.5 949.0Q759 930 745 919Q761 927 780 927Q809 927 829.5 911.5Q850 896 850 864ZM604 1042Q604 1017 586.5 999.0Q569 981 543 981Q517 981 501.0 996.0Q485 1011 477 1034Q477 1014 479.0 988.5Q481 963 493 946H452Q463 961 466.0 988.0Q469 1015 469 1034Q460 1011 444.5 996.0Q429 981 403 981Q377 981 359.5 999.0Q342 1017 342 1042Q342 1073 362.0 1089.5Q382 1106 411 1106Q432 1106 446 1097Q432 1108 421.5 1127.0Q411 1146 411 1163Q411 1189 429.0 1206.5Q447 1224 473 1224Q499 1224 516.5 1206.5Q534 1189 534 1163Q534 1146 524.0 1127.0Q514 1108 500 1097Q508 1102 516.5 1104.0Q525 1106 534 1106Q563 1106 583.5 1090.0Q604 1074 604 1042ZM309 1206Q309 1194 307.5 1180.5Q306 1167 300.5 1155.5Q295 1144 285.5 1137.0Q276 1130 260 1130Q245 1130 235.5 1137.0Q226 1144 221.0 1155.5Q216 1167 214.5 1180.5Q213 1194 213 1206Q213 1219 214.5 1232.5Q216 1246 221.0 1257.0Q226 1268 235.5 1275.0Q245 1282 260 1282Q275 1282 285.0 1275.0Q295 1268 300.0 1256.5Q305 1245 307.0 1231.5Q309 1218 309 1206ZM203 1132H176V1241H153V1257Q179 1257 184 1280H203ZM1098 385Q1098 354 1077.5 337.5Q1057 321 1028 321Q1019 321 1010.0 322.5Q1001 324 993 329Q1007 318 1017.5 299.5Q1028 281 1028 264Q1028 238 1010.0 220.0Q992 202 966 202Q940 202 922.5 220.0Q905 238 905 264Q905 281 915.5 299.5Q926 318 940 329Q932 324 923.0 322.5Q914 321 905 321Q876 321 855.5 337.0Q835 353 835 385Q835 409 853.0 427.5Q871 446 897 446Q923 446 938.5 431.0Q954 416 962 393Q962 413 960.0 438.5Q958 464 946 481H987Q981 473 978.0 461.5Q975 450 973.5 438.0Q972 426 971.5 414.0Q971 402 971 393Q980 416 995.0 431.0Q1010 446 1036 446Q1062 446 1080.0 427.5Q1098 409 1098 385ZM1288 86Q1288 69 1277.5 61.0Q1267 53 1251 53Q1242 53 1233 57Q1251 44 1251 22Q1251 8 1241.5 -1.5Q1232 -11 1218 -11Q1204 -11 1195.0 -1.5Q1186 8 1186 22Q1186 44 1204 57Q1195 53 1186 53Q1170 53 1159.5 61.0Q1149 69 1149 86Q1149 100 1158.5 109.0Q1168 118 1182 118Q1196 118 1203.5 110.0Q1211 102 1216 90Q1216 101 1215.0 114.5Q1214 128 1208 137H1229Q1224 129 1222.0 115.0Q1220 101 1220 90Q1225 102 1233.0 110.0Q1241 118 1255 118Q1269 118 1278.5 109.0Q1288 100 1288 86ZM301 991Q301 977 291.5 967.5Q282 958 268 958Q254 958 246.0 966.0Q238 974 233 987Q233 976 234.0 962.5Q235 949 241 940H221Q226 948 227.5 962.0Q229 976 229 987Q224 974 216.0 966.0Q208 958 194 958Q180 958 171.0 967.5Q162 977 162 991Q162 1008 172.5 1016.0Q183 1024 198 1024Q208 1024 217 1020Q209 1026 203.5 1035.5Q198 1045 198 1054Q198 1068 207.5 1077.5Q217 1087 231 1087Q245 1087 254.5 1077.5Q264 1068 264 1054Q264 1045 259.0 1035.5Q254 1026 246 1020Q255 1024 264 1024Q279 1024 290.0 1016.0Q301 1008 301 991ZM604 692Q604 667 586.5 648.5Q569 630 543 630Q517 630 501.0 645.5Q485 661 477 684Q477 664 479.0 638.5Q481 613 493 596H452Q463 611 466.0 638.0Q469 665 469 684Q460 661 444.5 645.5Q429 630 403 630Q377 630 359.5 648.5Q342 667 342 692Q342 723 362.0 739.0Q382 755 411 755Q432 755 446 747Q432 758 421.5 777.0Q411 796 411 813Q411 839 429.0 856.5Q447 874 473 874Q499 874 516.5 856.5Q534 839 534 813Q534 796 524.0 777.0Q514 758 500 747Q508 752 516.5 753.5Q525 755 534 755Q563 755 583.5 739.5Q604 724 604 692ZM1296 -181Q1272 -181 1265 -203H1247V-56H1274V-164H1296ZM1237 -129Q1237 -142 1235.5 -155.5Q1234 -169 1229.0 -180.0Q1224 -191 1214.5 -198.0Q1205 -205 1190 -205Q1175 -205 1165.0 -198.0Q1155 -191 1150.0 -179.5Q1145 -168 1143.0 -154.5Q1141 -141 1141 -129Q1141 -117 1142.5 -104.0Q1144 -91 1149.5 -79.5Q1155 -68 1164.5 -61.0Q1174 -54 1190 -54Q1205 -54 1214.5 -61.0Q1224 -68 1229.0 -79.5Q1234 -91 1235.5 -104.0Q1237 -117 1237 -129ZM1098 35Q1098 4 1077.5 -12.5Q1057 -29 1028 -29Q1019 -29 1010.0 -27.5Q1001 -26 993 -21Q1007 -32 1017.5 -50.5Q1028 -69 1028 -86Q1028 -112 1010.0 -130.0Q992 -148 966 -148Q940 -148 922.5 -130.0Q905 -112 905 -86Q905 -69 915.5 -50.5Q926 -32 940 -21Q932 -26 923.0 -27.5Q914 -29 905 -29Q876 -29 855.5 -13.5Q835 2 835 35Q835 59 853.0 77.5Q871 96 897 96Q923 96 938.5 81.0Q954 66 962 43Q962 63 960.0 88.5Q958 114 946 131H987Q981 123 978.0 111.5Q975 100 973.5 88.0Q972 76 971.5 64.0Q971 52 971 43Q980 66 995.0 81.0Q1010 96 1036 96Q1062 96 1080.0 77.5Q1098 59 1098 35ZM852 213Q852 182 831.5 165.5Q811 149 782 149Q763 149 747 157Q761 146 771.5 127.5Q782 109 782 92Q782 66 764.5 48.0Q747 30 721 30Q695 30 677.0 48.0Q659 66 659 92Q659 109 669.5 127.5Q680 146 694 157Q680 149 659 149Q630 149 610.0 165.0Q590 181 590 213Q590 237 607.5 255.5Q625 274 651 274Q677 274 693.0 259.0Q709 244 717 221Q717 230 716.5 242.0Q716 254 714.5 266.0Q713 278 709.5 289.0Q706 300 700 309H741Q735 301 732.0 289.5Q729 278 727.5 266.0Q726 254 725.5 242.0Q725 230 725 221Q734 244 749.0 259.0Q764 274 790 274Q816 274 834.0 255.5Q852 237 852 213ZM604 385Q604 354 583.5 337.5Q563 321 534 321Q525 321 516.5 322.5Q508 324 500 329Q514 318 524.0 299.5Q534 281 534 264Q534 238 516.5 220.0Q499 202 473 202Q447 202 429.0 220.0Q411 238 411 264Q411 281 421.5 299.5Q432 318 446 329Q432 321 411 321Q382 321 362.0 337.0Q342 353 342 385Q342 409 359.5 427.5Q377 446 403 446Q429 446 445.0 431.0Q461 416 469 393Q469 413 467.0 438.5Q465 464 452 481H493Q487 473 484.0 461.5Q481 450 479.5 438.0Q478 426 477.5 414.0Q477 402 477 393Q486 416 501.5 431.0Q517 446 543 446Q569 446 586.5 427.5Q604 409 604 385ZM604 35Q604 4 583.5 -12.5Q563 -29 534 -29Q525 -29 516.5 -27.5Q508 -26 500 -21Q514 -32 524.0 -50.5Q534 -69 534 -86Q534 -112 516.5 -130.0Q499 -148 473 -148Q447 -148 429.0 -130.0Q411 -112 411 -86Q411 -69 421.5 -50.5Q432 -32 446 -21Q432 -29 411 -29Q382 -29 362.0 -13.5Q342 2 342 35Q342 59 359.5 77.5Q377 96 403 96Q429 96 445.0 81.0Q461 66 469 43Q469 52 468.5 64.0Q468 76 466.5 88.0Q465 100 461.5 111.0Q458 122 452 131H493Q487 123 484.0 111.5Q481 100 479.5 88.0Q478 76 477.5 64.0Q477 52 477 43Q486 66 501.5 81.0Q517 96 543 96Q569 96 586.5 77.5Q604 59 604 35ZM282 1206Q282 1212 281.5 1221.5Q281 1231 279.0 1240.5Q277 1250 272.5 1256.5Q268 1263 260 1263Q251 1263 247.0 1256.5Q243 1250 241.0 1240.5Q239 1231 239.0 1221.5Q239 1212 239 1206Q239 1201 239.0 1191.5Q239 1182 241.0 1172.5Q243 1163 247.0 1156.0Q251 1149 260 1149Q269 1149 273.5 1156.0Q278 1163 280.0 1172.5Q282 1182 282.0 1191.5Q282 1201 282 1206ZM1210 -129Q1210 -124 1210.0 -114.5Q1210 -105 1208.5 -95.5Q1207 -86 1202.5 -79.0Q1198 -72 1190 -72Q1181 -72 1176.0 -79.0Q1171 -86 1169.0 -95.5Q1167 -105 1167.0 -114.5Q1167 -124 1167 -129Q1167 -135 1167.5 -145.0Q1168 -155 1170.0 -164.5Q1172 -174 1176.5 -180.5Q1181 -187 1190 -187Q1198 -187 1202.5 -180.5Q1207 -174 1208.5 -164.5Q1210 -155 1210.0 -145.0Q1210 -135 1210 -129Z" fill="#1a1a1a"/></g>
</svg>
