<svg xmlns="http://www.w3.org/2000/svg" viewBox="0 0 512 512" data-copyright="© 2026 Sensory App House"><!--SAH-COPYRIGHT © 2026 Sensory App House. All rights reserved.--><metadata id="sah-copyright"><rdf:RDF xmlns:rdf="http://www.w3.org/1999/02/22-rdf-syntax-ns#" xmlns:dc="http://purl.org/dc/elements/1.1/" xmlns:cc="http://creativecommons.org/ns#"><cc:Work rdf:about=""><dc:rights><cc:Agent><dc:title>© 2026 Sensory App House. All rights reserved.</dc:title></cc:Agent></dc:rights><dc:creator><cc:Agent><dc:title>Sensory App House (PiCom)</dc:title></cc:Agent></dc:creator><dc:date>2026</dc:date></cc:Work></rdf:RDF></metadata>
  <g transform="translate(-35.937 -42.167) scale(1.1326)">
  
  <path d="M96 96 L96 372 Q96 388 112 388 L240 388 Q256 388 256 372 L256 320 L208 320 L208 96 Z" fill="#8a4a26" stroke="#1a1a1a" stroke-width="4.4146" stroke-linejoin="round" />
  
  <path d="M88 388 L260 388 Q272 388 272 400 L272 412 Q272 424 260 424 L96 424 Q84 424 84 412 L84 400 Q84 388 96 388 Z" fill="#1a1a1a" stroke="#1a1a1a" stroke-width="4" stroke-linejoin="round" />
  
  <rect x="100" y="412" width="40" height="20" fill="#1a1a1a" stroke="#1a1a1a" stroke-width="4" />
  
  <line x1="120" y1="140" x2="200" y2="160" stroke="#1a1a1a" stroke-width="5" stroke-linecap="round" />
  <line x1="120" y1="180" x2="200" y2="200" stroke="#1a1a1a" stroke-width="5" stroke-linecap="round" />
  <line x1="120" y1="220" x2="200" y2="240" stroke="#1a1a1a" stroke-width="5" stroke-linecap="round" />
  <line x1="120" y1="260" x2="200" y2="280" stroke="#1a1a1a" stroke-width="5" stroke-linecap="round" />
  
  <path d="M96 96 L208 96 L208 116 L96 116 Z" fill="#c9883d" stroke="#1a1a1a" stroke-width="5" />
  
  <path d="M304 96 L304 320 L256 320 L256 372 Q256 388 272 388 L400 388 Q416 388 416 372 L416 96 Z" fill="#8a4a26" stroke="#1a1a1a" stroke-width="4.4146" stroke-linejoin="round" />
  
  <path d="M252 388 L420 388 Q432 388 432 400 L432 412 Q432 424 420 424 L260 424 Q248 424 248 412 L248 400 Q248 388 260 388 Z" fill="#1a1a1a" stroke="#1a1a1a" stroke-width="4" stroke-linejoin="round" />
  <rect x="372" y="412" width="40" height="20" fill="#1a1a1a" stroke="#1a1a1a" stroke-width="4" />
  <line x1="312" y1="160" x2="392" y2="140" stroke="#1a1a1a" stroke-width="5" stroke-linecap="round" />
  <line x1="312" y1="200" x2="392" y2="180" stroke="#1a1a1a" stroke-width="5" stroke-linecap="round" />
  <line x1="312" y1="240" x2="392" y2="220" stroke="#1a1a1a" stroke-width="5" stroke-linecap="round" />
  <line x1="312" y1="280" x2="392" y2="260" stroke="#1a1a1a" stroke-width="5" stroke-linecap="round" />
  <path d="M304 96 L416 96 L416 116 L304 116 Z" fill="#c9883d" stroke="#1a1a1a" stroke-width="5" />
</g>
  </svg>