<svg xmlns="http://www.w3.org/2000/svg" viewBox="0 0 512 512" width="512" height="512" data-copyright="© 2026 Sensory App House"><!--SAH-COPYRIGHT © 2026 Sensory App House. All rights reserved.--><metadata id="sah-copyright"><rdf:RDF xmlns:rdf="http://www.w3.org/1999/02/22-rdf-syntax-ns#" xmlns:dc="http://purl.org/dc/elements/1.1/" xmlns:cc="http://creativecommons.org/ns#"><cc:Work rdf:about=""><dc:rights><cc:Agent><dc:title>© 2026 Sensory App House. All rights reserved.</dc:title></cc:Agent></dc:rights><dc:creator><cc:Agent><dc:title>Sensory App House (PiCom)</dc:title></cc:Agent></dc:creator><dc:date>2026</dc:date></cc:Work></rdf:RDF></metadata>
  
  
  
  <circle cx="42" cy="32" r="2" fill="#ffffff" />
  <circle cx="108" cy="62" r="1.5" fill="#ffffff" />
  <circle cx="192" cy="22" r="2" fill="#ffffff" />
  <circle cx="305" cy="46" r="1.5" fill="#ffffff" />
  <circle cx="422" cy="27" r="2" fill="#ffffff" />
  <circle cx="475" cy="84" r="1.5" fill="#ffffff" />
  <circle cx="64" cy="122" r="1.5" fill="#ffffff" />
  <circle cx="385" cy="102" r="2" fill="#ffffff" />
  <circle cx="491" cy="202" r="1.5" fill="#ffffff" />
  <circle cx="32" cy="302" r="2" fill="#ffffff" />
  
  <rect x="0" y="180" width="60" height="150" rx="8" fill="#777788" stroke="#1a1a1a" stroke-width="3" />
  <circle cx="30" cy="225" r="14" fill="#99bbdd" stroke="#1a1a1a" stroke-width="2" />
  
  
  <rect x="130" y="260" width="80" height="130" rx="10" fill="#888888" stroke="#1a1a1a" stroke-width="5" />
  
  <rect x="115" y="268" width="22" height="20" rx="6" fill="#666666" stroke="#1a1a1a" stroke-width="3" />
  <rect x="207" y="268" width="22" height="20" rx="6" fill="#666666" stroke="#1a1a1a" stroke-width="3" />
  <rect x="115" y="358" width="22" height="20" rx="6" fill="#666666" stroke="#1a1a1a" stroke-width="3" />
  <rect x="207" y="358" width="22" height="20" rx="6" fill="#666666" stroke="#1a1a1a" stroke-width="3" />
  
  <rect x="147" y="248" width="22" height="18" rx="5" fill="#666666" stroke="#1a1a1a" stroke-width="3" />
  <rect x="175" y="248" width="22" height="18" rx="5" fill="#666666" stroke="#1a1a1a" stroke-width="3" />
  
  <rect x="142" y="280" width="60" height="50" rx="5" fill="#555566" stroke="#1a1a1a" stroke-width="2" />
  <circle cx="158" cy="296" r="5" fill="#ffff00" />
  <circle cx="174" cy="296" r="5" fill="#ff4444" />
  <circle cx="190" cy="296" r="5" fill="#44ff44" />
  
  <ellipse cx="234" cy="278" rx="12" ry="6" fill="#ff8800" stroke="#1a1a1a" stroke-width="2" />
  <ellipse cx="234" cy="368" rx="12" ry="6" fill="#ff8800" stroke="#1a1a1a" stroke-width="2" />
  
  <circle cx="220" cy="188" r="56" fill="#f5deb3" stroke="#1a1a1a" stroke-width="6" />
  <circle cx="220" cy="188" r="66" fill="none" stroke="#1a1a1a" stroke-width="10" />
  <circle cx="220" cy="188" r="72" fill="none" stroke="#1a1a1a" stroke-width="5" />
  
  
  
  <ellipse cx="208" cy="178" rx="7" ry="8" fill="#1a1a1a" />
  <ellipse cx="232" cy="178" rx="7" ry="8" fill="#1a1a1a" />
  <circle cx="210" cy="175" r="2.5" fill="#ffffff" />
  <circle cx="234" cy="175" r="2.5" fill="#ffffff" />
  <path d="M209 191 Q220 200 231 191" stroke="#1a1a1a" stroke-width="2.5" fill="none" />
  
  
  <rect x="188" y="250" width="64" height="18" rx="8" fill="#cccccc" stroke="#1a1a1a" stroke-width="5" />
  
  <rect x="172" y="266" width="136" height="128" rx="18" fill="#f0f0f0" stroke="#1a1a1a" stroke-width="5.0000" />
  
  <rect x="234" y="278" width="60" height="50" rx="6" fill="#ccdcee" stroke="#1a1a1a" stroke-width="3" />
  <circle cx="248" cy="294" r="6" fill="#ff3333" />
  <circle cx="268" cy="294" r="6" fill="#33ee33" />
  <circle cx="288" cy="294" r="6" fill="#ffff33" />
  
  <rect x="172" y="272" width="28" height="18" rx="2" fill="#cc2222" stroke="#1a1a1a" stroke-width="2" />
  <rect x="172" y="272" width="28" height="6" fill="#cc2222" />
  <rect x="172" y="278" width="28" height="6" fill="#ffffff" />
  <rect x="172" y="284" width="28" height="6" fill="#cc2222" />
  <rect x="172" y="272" width="12" height="11" fill="#224488" />
  
  <rect x="90" y="265" width="86" height="50" rx="22" fill="#f0f0f0" stroke="#1a1a1a" stroke-width="6" />
  
  <rect x="80" y="272" width="18" height="32" rx="8" fill="#888888" stroke="#1a1a1a" stroke-width="4" />
  
  <ellipse cx="98" cy="300" rx="22" ry="16" fill="#e8e8e8" stroke="#1a1a1a" stroke-width="5" />
  
  <rect x="308" y="265" width="86" height="50" rx="22" fill="#f0f0f0" stroke="#1a1a1a" stroke-width="6" />
  
  <rect x="406" y="272" width="18" height="32" rx="8" fill="#888888" stroke="#1a1a1a" stroke-width="4" />
  
  <ellipse cx="396" cy="300" rx="22" ry="16" fill="#e8e8e8" stroke="#1a1a1a" stroke-width="5" />
  
  <rect x="186" y="386" width="112" height="48" rx="16" fill="#eeeeee" stroke="#1a1a1a" stroke-width="6" />
  
  <rect x="184" y="426" width="52" height="58" rx="16" fill="#f0f0f0" stroke="#1a1a1a" stroke-width="6" />
  <ellipse cx="210" cy="492" rx="28" ry="14" fill="#cccccc" stroke="#1a1a1a" stroke-width="5" />
  
  <rect x="250" y="426" width="52" height="58" rx="16" fill="#f0f0f0" stroke="#1a1a1a" stroke-width="6" />
  <ellipse cx="276" cy="492" rx="28" ry="14" fill="#cccccc" stroke="#1a1a1a" stroke-width="5" />
</svg>