<svg xmlns="http://www.w3.org/2000/svg" viewBox="0 0 512 512" width="512" height="512" data-copyright="© 2026 Sensory App House"><!--SAH-COPYRIGHT © 2026 Sensory App House. All rights reserved.--><metadata id="sah-copyright"><rdf:RDF xmlns:rdf="http://www.w3.org/1999/02/22-rdf-syntax-ns#" xmlns:dc="http://purl.org/dc/elements/1.1/" xmlns:cc="http://creativecommons.org/ns#"><cc:Work rdf:about=""><dc:rights><cc:Agent><dc:title>© 2026 Sensory App House. All rights reserved.</dc:title></cc:Agent></dc:rights><dc:creator><cc:Agent><dc:title>Sensory App House (PiCom)</dc:title></cc:Agent></dc:creator><dc:date>2026</dc:date></cc:Work></rdf:RDF></metadata>
  
  <rect x="60" y="230" width="392" height="52" rx="26" ry="26" fill="#9966cc" stroke="#1a1a1a" stroke-width="5.0000" />

  
  <rect x="100" y="230" width="22" height="52" fill="#cc4444" stroke="none" />
  <rect x="148" y="230" width="14" height="52" fill="#ffdd00" stroke="none" />
  <rect x="180" y="230" width="28" height="52" fill="#444499" stroke="none" />
  <rect x="230" y="230" width="20" height="52" fill="#cc4444" stroke="none" />
  <rect x="300" y="230" width="18" height="52" fill="#ffdd00" stroke="none" />
  <rect x="340" y="230" width="24" height="52" fill="#444499" stroke="none" />
  <rect x="386" y="230" width="16" height="52" fill="#cc4444" stroke="none" />

  
  <rect x="255" y="220" width="60" height="72" rx="8" ry="8" fill="#44ee44" stroke="#1a1a1a" stroke-width="6" opacity="0.92" />

  
  <line x1="285" y1="185" x2="285" y2="218" stroke="#1a1a1a" stroke-width="5" />
  <polygon points="275,218 295,218 285,230" fill="#e05010" />

  
  <line x1="263" y1="244" x2="307" y2="244" stroke="#1a1a1a" stroke-width="2" />
  <line x1="263" y1="256" x2="307" y2="256" stroke="#1a1a1a" stroke-width="2" />

  
  <line x1="270" y1="238" x2="270" y2="274" stroke="#1a1a1a" stroke-width="2.5" />
  <line x1="282" y1="238" x2="282" y2="274" stroke="#1a1a1a" stroke-width="2.5" />
  <line x1="294" y1="238" x2="294" y2="274" stroke="#1a1a1a" stroke-width="2.5" />
  <line x1="306" y1="238" x2="306" y2="274" stroke="#1a1a1a" stroke-width="2.5" />

  
  <text x="265" y="237" font-size="11" font-family="'Comic Sans MS', 'Chalkboard SE', 'Marker Felt', 'Century Gothic', Verdana, sans-serif" fill="#1a1a1a" font-weight="bold">A</text>
  <text x="277" y="237" font-size="11" font-family="'Comic Sans MS', 'Chalkboard SE', 'Marker Felt', 'Century Gothic', Verdana, sans-serif" fill="#1a1a1a" font-weight="bold">T</text>
  <text x="289" y="237" font-size="11" font-family="'Comic Sans MS', 'Chalkboard SE', 'Marker Felt', 'Century Gothic', Verdana, sans-serif" fill="#1a1a1a" font-weight="bold">G</text>
  <text x="301" y="237" font-size="11" font-family="'Comic Sans MS', 'Chalkboard SE', 'Marker Felt', 'Century Gothic', Verdana, sans-serif" fill="#1a1a1a" font-weight="bold">C</text>

  
  <ellipse cx="256" cy="256" rx="20" ry="26" fill="#7744aa" stroke="#1a1a1a" stroke-width="5" />
</svg>