<svg xmlns="http://www.w3.org/2000/svg" viewBox="95.03 175.24 321.94 321.94"><g transform="translate(256 256) scale(1.0) translate(-256 -256)">
<path d="M 256 250 Q 232 250 232 274 Q 232 288 244 296 L 244 302 L 268 302 L 268 296 Q 280 288 280 274 Q 280 250 256 250 Z" fill="none" stroke="#1a1a1a" stroke-width="7" stroke-linejoin="round"/>
<path d="M 214 302 L 298 302 L 322 372 Q 324 384 312 384 L 200 384 Q 188 384 190 372 Z" fill="#7f8c99" stroke="#1a1a1a" stroke-width="8" stroke-linejoin="round"/>
<path d="M 214 302 L 298 302 L 306 324 L 206 324 Z" fill="#9aa7b3" stroke="#1a1a1a" stroke-width="0" stroke-linejoin="round"/>
<path d="M 120 384 L 392 384 L 372 414 Q 366 422 354 422 L 158 422 Q 146 422 140 414 Z" fill="#c7d0d8" stroke="#1a1a1a" stroke-width="9" stroke-linejoin="round"/>
<line x1="256" y1="384" x2="256" y2="364" stroke="#1a1a1a" stroke-width="0"/>
</g></svg>
