<svg xmlns="http://www.w3.org/2000/svg" viewBox="0 0 512 512" width="512" height="512" data-copyright="© 2026 Sensory App House"><!--SAH-COPYRIGHT © 2026 Sensory App House. All rights reserved.--><metadata id="sah-copyright"><rdf:RDF xmlns:rdf="http://www.w3.org/1999/02/22-rdf-syntax-ns#" xmlns:dc="http://purl.org/dc/elements/1.1/" xmlns:cc="http://creativecommons.org/ns#"><cc:Work rdf:about=""><dc:rights><cc:Agent><dc:title>© 2026 Sensory App House. All rights reserved.</dc:title></cc:Agent></dc:rights><dc:creator><cc:Agent><dc:title>Sensory App House (PiCom)</dc:title></cc:Agent></dc:creator><dc:date>2026</dc:date></cc:Work></rdf:RDF></metadata>
  <g transform="translate(-49.678 -132.991) scale(1.1987)">
  <defs>
    <linearGradient id="gpb" x1="0%" y1="0%" x2="0%" y2="100%"><stop offset="0%" stop-color="#caa170" /><stop offset="55%" stop-color="#a87e4e" /><stop offset="100%" stop-color="#7e5c34" /></linearGradient>
  </defs>
  
  <path d="M104 332 Q104 268 188 248 Q300 230 384 258 Q420 274 418 322 Q416 372 376 392 Q300 414 200 410 Q120 402 106 360 Z" fill="url(#gpb)" stroke="#1a1a1a" stroke-width="4.1712" stroke-linejoin="round" />
  
  <path d="M260 250 Q330 244 384 264 Q418 280 416 322 Q414 366 380 386 Q330 400 268 400 Q258 330 260 250 Z" fill="#3e2c1a" opacity="0.55" />
  
  <path d="M150 320 Q190 304 232 320 Q240 360 222 392 Q186 404 164 392 Q146 360 150 320 Z" fill="#efe6d2" />
  <path d="M196 300 Q200 340 196 384 M328 282 Q330 330 330 384" fill="none" stroke="#1a1a1a" stroke-width="3" stroke-linecap="round" opacity="0.4" />
  
  <path d="M176 404 Q172 426 184 436 Q194 438 198 428 Q196 414 194 404 Z" fill="#7e5c34" stroke="#1a1a1a" stroke-width="5" stroke-linejoin="round" />
  <path d="M320 404 Q328 426 316 436 Q306 438 302 428 Q304 414 306 404 Z" fill="#5a4226" stroke="#1a1a1a" stroke-width="5" stroke-linejoin="round" />
  
  <path d="M104 332 Q86 296 96 264 Q110 240 144 240 Q176 242 192 270 Q200 300 192 332 Q150 352 122 350 Q108 346 104 332 Z" fill="#bd9663" stroke="#1a1a1a" stroke-width="4.1712" stroke-linejoin="round" />
  
  <path d="M120 250 Q104 232 112 214 Q130 218 142 240 Q132 254 120 250 Z" fill="#a87e4e" stroke="#1a1a1a" stroke-width="5" stroke-linejoin="round" />
  <path d="M180 250 Q196 230 188 212 Q170 216 158 238 Q168 254 180 250 Z" fill="#a87e4e" stroke="#1a1a1a" stroke-width="5" stroke-linejoin="round" />
  
  <ellipse cx="124" cy="288" rx="12" ry="13" fill="#161210" stroke="#1a1a1a" stroke-width="3" />
  <ellipse cx="170" cy="286" rx="12" ry="13" fill="#161210" stroke="#1a1a1a" stroke-width="3" />
  <circle cx="121" cy="284" r="3.4" fill="#ffffff" /><circle cx="167" cy="282" r="3.4" fill="#ffffff" />
  
  <path d="M96 308 Q86 314 88 324 Q96 330 104 324 Q108 314 100 308 Z" fill="#5a3c28" />
  <path d="M96 326 Q90 336 80 336 M100 328 Q104 338 114 340" fill="none" stroke="#1a1a1a" stroke-width="2.6" stroke-linecap="round" />
  <path d="M104 314 Q84 314 68 320 M106 322 Q88 326 74 334" fill="none" stroke="#1a1a1a" stroke-width="2.5" stroke-linecap="round" opacity="0.6" />
</g>
  </svg>