<svg xmlns="http://www.w3.org/2000/svg" viewBox="0 0 512 512" data-copyright="© 2026 Sensory App House"><!--SAH-COPYRIGHT © 2026 Sensory App House. All rights reserved.--><metadata id="sah-copyright"><rdf:RDF xmlns:rdf="http://www.w3.org/1999/02/22-rdf-syntax-ns#" xmlns:dc="http://purl.org/dc/elements/1.1/" xmlns:cc="http://creativecommons.org/ns#"><cc:Work rdf:about=""><dc:rights><cc:Agent><dc:title>© 2026 Sensory App House. All rights reserved.</dc:title></cc:Agent></dc:rights><dc:creator><cc:Agent><dc:title>Sensory App House (PiCom)</dc:title></cc:Agent></dc:creator><dc:date>2026</dc:date></cc:Work></rdf:RDF></metadata><g data-fit="1" transform="translate(44.00 80.55) scale(1.4621)">
  
  <rect x="60" y="178" width="170" height="28" rx="6" fill="#9d7246" stroke="#1a1a1a" stroke-width="4.45" stroke-linejoin="round"/>
  
  <polygon points="60,178 230,178 230,168 80,168" fill="#7d5e23" stroke="#1a1a1a" stroke-width="4.45" stroke-linejoin="round"/>
  
  <rect x="80" y="68" width="130" height="116" rx="10" fill="#2a4ec0" stroke="#1a1a1a" stroke-width="4.45" stroke-linejoin="round"/>
  
  <rect x="90" y="58" width="110" height="36" rx="10" fill="#2a4ec0" stroke="#1a1a1a" stroke-width="4.45" stroke-linejoin="round"/>
  
  <rect x="88" y="152" width="114" height="28" rx="6" fill="#1d0e82" stroke="#1a1a1a" stroke-width="4.45" stroke-linejoin="round"/>
  
  <rect x="116" y="100" width="58" height="54" rx="8" fill="#eed5b6" stroke="#1a1a1a" stroke-width="3.55" stroke-linejoin="round"/>
  
  <circle cx="145" cy="90" r="22" fill="#eed5b6" stroke="#1a1a1a" stroke-width="3.55"/>
  
  <line x1="120" y1="100" x2="108" y2="152" stroke="#f8130d" stroke-width="4.45" stroke-linecap="round"/>
  
  <line x1="170" y1="100" x2="182" y2="152" stroke="#f8130d" stroke-width="4.45" stroke-linecap="round"/>
  
  <rect x="128" y="122" width="34" height="10" rx="3" fill="#f7de58" stroke="#1a1a1a" stroke-width="2.66" stroke-linejoin="round"/>
  
  <line x1="145" y1="132" x2="145" y2="154" stroke="#f8130d" stroke-width="4.45" stroke-linecap="round"/>
  
  <rect x="82" y="64" width="16" height="28" rx="4" fill="#2a4ec0" stroke="#1a1a1a" stroke-width="3.55" stroke-linejoin="round"/>
  <rect x="192" y="64" width="16" height="28" rx="4" fill="#2a4ec0" stroke="#1a1a1a" stroke-width="3.55" stroke-linejoin="round"/>
</g></svg>