<svg xmlns="http://www.w3.org/2000/svg" viewBox="0 0 512 512" data-copyright="© 2026 Sensory App House"><!--SAH-COPYRIGHT © 2026 Sensory App House. All rights reserved.--><metadata id="sah-copyright"><rdf:RDF xmlns:rdf="http://www.w3.org/1999/02/22-rdf-syntax-ns#" xmlns:dc="http://purl.org/dc/elements/1.1/" xmlns:cc="http://creativecommons.org/ns#"><cc:Work rdf:about=""><dc:rights><cc:Agent><dc:title>© 2026 Sensory App House. All rights reserved.</dc:title></cc:Agent></dc:rights><dc:creator><cc:Agent><dc:title>Sensory App House (PiCom)</dc:title></cc:Agent></dc:creator><dc:date>2026</dc:date></cc:Work></rdf:RDF></metadata><g data-fit="1" transform="translate(44.00 80.55) scale(1.4621)">
  <rect x="18" y="22" width="170" height="200" rx="6" fill="#ffffff" stroke="#1a1a1a" stroke-width="5.93" stroke-linejoin="round"/>
  <rect x="18" y="22" width="170" height="22" fill="#529929" stroke="#1a1a1a" stroke-width="5.93" stroke-linejoin="round"/>
  <circle cx="28" cy="33" r="3" fill="#ffffff"/>
  <circle cx="38" cy="33" r="3" fill="#ffffff"/>
  <circle cx="48" cy="33" r="3" fill="#ffffff"/>
  <path d="M18 60 L188 60 M18 78 L188 78 M18 96 L188 96 M18 114 L188 114 M18 132 L188 132 M18 150 L188 150 M18 168 L188 168 M18 186 L188 186 M18 204 L188 204" fill="none" stroke="#7f7f7f" stroke-width="2.22"/>
  <path d="M60 44 L60 222 M105 44 L105 222 M150 44 L150 222" fill="none" stroke="#7f7f7f" stroke-width="2.22"/>
  <rect x="18" y="44" width="170" height="16" fill="#dff3fd" stroke="#1a1a1a" stroke-width="2.96"/>
  <path d="M28 56 L36 56 M70 56 L82 56 M115 56 L130 56 M158 56 L180 56" fill="none" stroke="#1a1a1a" stroke-width="4.45" stroke-linecap="round"/>
  <path d="M28 72 L42 72 M70 72 L88 72 M115 72 L132 72 M158 72 L178 72" fill="none" stroke="#7f7f7f" stroke-width="3.70" stroke-linecap="round"/>
  <path d="M28 90 L42 90 M70 90 L88 90 M115 90 L132 90 M158 90 L178 90" fill="none" stroke="#7f7f7f" stroke-width="3.70" stroke-linecap="round"/>
  <path d="M28 108 L42 108 M70 108 L88 108 M115 108 L132 108 M158 108 L178 108" fill="none" stroke="#7f7f7f" stroke-width="3.70" stroke-linecap="round"/>
  <path d="M28 126 L42 126 M70 126 L88 126 M115 126 L132 126 M158 126 L178 126" fill="none" stroke="#7f7f7f" stroke-width="3.70" stroke-linecap="round"/>
  <path d="M28 144 L42 144 M70 144 L88 144 M115 144 L132 144 M158 144 L178 144" fill="none" stroke="#7f7f7f" stroke-width="3.70" stroke-linecap="round"/>
  <path d="M28 162 L42 162 M70 162 L88 162 M115 162 L132 162 M158 162 L178 162" fill="none" stroke="#7f7f7f" stroke-width="3.70" stroke-linecap="round"/>
  <rect x="18" y="186" width="170" height="18" fill="#f7de58" stroke="#1a1a1a" stroke-width="4.45"/>
  <path d="M28 198 L52 198 M155 198 Q155 192 162 192 Q168 192 168 197 Q168 202 162 202 Q155 202 155 197 M170 198 L182 198 M170 198 L182 198" fill="none" stroke="#1a1a1a" stroke-width="4.45" stroke-linecap="round"/>
  <path d="M158 195 L158 201 M160 191 L160 205" fill="none" stroke="#1a1a1a" stroke-width="3.70" stroke-linecap="round"/>
  <circle cx="240" cy="100" r="48" fill="#ffffff" stroke="#1a1a1a" stroke-width="5.93"/>
  <path d="M240 100 L240 52 A 48 48 0 0 1 281 124 Z" fill="#529929" stroke="#1a1a1a" stroke-width="4.45" stroke-linejoin="round"/>
  <path d="M240 100 L281 124 A 48 48 0 0 1 215 142 Z" fill="#d01424" stroke="#1a1a1a" stroke-width="4.45" stroke-linejoin="round"/>
  <path d="M240 100 L215 142 A 48 48 0 0 1 196 88 Z" fill="#2a4ec0" stroke="#1a1a1a" stroke-width="4.45" stroke-linejoin="round"/>
  <path d="M240 100 L196 88 A 48 48 0 0 1 240 52 Z" fill="#f7de58" stroke="#1a1a1a" stroke-width="4.45" stroke-linejoin="round"/>
  <path d="M210 175 L260 175" fill="none" stroke="#1a1a1a" stroke-width="7.40" stroke-linecap="round"/>
  <circle cx="215" cy="175" r="3" fill="#000000"/>
  <circle cx="255" cy="175" r="3" fill="#000000"/>
  <path d="M225 195 L235 168 L235 195 L245 168 L245 195" fill="none" stroke="#1a1a1a" stroke-width="5.93" stroke-linecap="round" stroke-linejoin="round"/>
  <circle cx="218" cy="218" r="14" fill="#f7de58" stroke="#1a1a1a" stroke-width="4.45"/>
  <path d="M214 211 L222 211 M214 219 L222 219 M218 207 L218 228" fill="none" stroke="#1a1a1a" stroke-width="4.45" stroke-linecap="round"/>
  <circle cx="258" cy="218" r="14" fill="#529929" stroke="#1a1a1a" stroke-width="4.45"/>
  <path d="M252 220 L256 224 L264 214" fill="none" stroke="#ffffff" stroke-width="4.45" stroke-linecap="round" stroke-linejoin="round"/>
</g></svg>